<svg id="Layer_1" data-name="Layer 1" xmlns="http://www.w3.org/2000/svg" width="78.413" height="78.494" viewBox="0 0 78.413 78.494">
  <g id="Group_5" data-name="Group 5" transform="translate(0)">
    <path id="Path_7" data-name="Path 7" d="M36.027,78.494c-2.042-.278-4.08-.556-6.091-1.028A39.4,39.4,0,0,1,.619,46.215,38.534,38.534,0,0,1,7.195,16.592,38.3,38.3,0,0,1,32.333.552C33.556.323,34.795.182,36.027,0H42.3c1.433.2,2.89.307,4.3.625q23.729,5.39,30.635,28.785a42.071,42.071,0,0,1,1.177,6.77v6.286c-.182,1.235-.335,2.473-.548,3.7A39.3,39.3,0,0,1,48.39,77.494c-1.96.466-3.949.724-5.938,1H36.025ZM2.837,37.763A36.447,36.447,0,1,0,39.324,2.715,36.4,36.4,0,0,0,2.837,37.763Z" transform="translate(0.003)" fill="#016536"/>
    <path id="Path_8" data-name="Path 8" d="M207.153,134.951c.243-5.112.5-10.362.744-15.611.063-1.351.11-2.7.172-4.053a.894.894,0,0,0-.411-.91c-2.306-1.47-3.123-3.706-3.26-6.318a19.958,19.958,0,0,1,1.719-8.64,6.02,6.02,0,0,1,10.987-.088,18.383,18.383,0,0,1,1.588,10.376,6.555,6.555,0,0,1-2.872,4.52,1.263,1.263,0,0,0-.617,1.265c.27,5.734.5,11.472.789,17.2.057,1.147.137,2.294.127,3.442a4.315,4.315,0,0,1-4.5,4.229,4.359,4.359,0,0,1-4.462-4.2c-.006-.358,0-.715,0-1.212Zm2.811-.319c0,.352-.006.787,0,1.22a1.493,1.493,0,0,0,1.7,1.684,1.462,1.462,0,0,0,1.641-1.662c-.043-2.144-.119-4.286-.215-6.429q-.343-7.61-.726-15.218a1.77,1.77,0,0,1,1.139-1.877,4.342,4.342,0,0,0,2.543-3.959,18.116,18.116,0,0,0-1.357-7.706,3.061,3.061,0,0,0-3.083-2.077,2.984,2.984,0,0,0-3.015,2.056,18.344,18.344,0,0,0-1.382,7.549,4.482,4.482,0,0,0,2.67,4.2,1.627,1.627,0,0,1,1.024,1.713c-.072,1.5-.121,3.009-.19,4.513-.247,5.3-.5,10.6-.752,15.989Z" transform="translate(-162.599 -76.23)" fill="#016536"/>
    <path id="Path_9" data-name="Path 9" d="M123.087,103.09c0,1.789-.025,3.577.012,5.366a2.325,2.325,0,0,1-.764,1.836c-.863.832-1.686,1.707-2.553,2.537a1.533,1.533,0,0,0-.536,1.278q.3,5.314.564,10.627.181,3.557.348,7.114c.061,1.276.145,2.549.159,3.825a4.472,4.472,0,1,1-8.937.055c.123-3.827.37-7.647.56-11.472q.172-3.44.335-6.885c.053-1.122.094-2.244.161-3.365a1.3,1.3,0,0,0-.442-1.083c-.914-.889-1.8-1.807-2.71-2.7a2.158,2.158,0,0,1-.7-1.631c.018-3.7.008-7.41.01-11.114a2.619,2.619,0,0,1,.043-.609,1.268,1.268,0,0,1,1.237-1.059,1.234,1.234,0,0,1,1.37.977,5.962,5.962,0,0,1,.137,1.443c.01,3.117.016,6.235,0,9.352a1.77,1.77,0,0,0,.585,1.419c.873.822,1.688,1.7,2.555,2.533a2.216,2.216,0,0,1,.744,1.84q-.307,5.35-.576,10.7-.178,3.44-.331,6.885c-.072,1.631-.159,3.264-.174,4.9a1.558,1.558,0,0,0,1.889,1.664,1.519,1.519,0,0,0,1.417-1.684c-.025-1.711-.094-3.42-.18-5.129-.119-2.4-.278-4.789-.4-7.185-.172-3.314-.311-6.629-.5-9.943a2.53,2.53,0,0,1,.867-2.175c.809-.74,1.535-1.57,2.343-2.312a1.98,1.98,0,0,0,.681-1.611c-.029-3.04-.014-6.081-.01-9.121a8.958,8.958,0,0,1,.059-1.147c.121-.959.664-1.468,1.472-1.41.773.053,1.245.611,1.255,1.541.016,1.251,0,2.5.006,3.755v1.993Z" transform="translate(-86.392 -76.216)" fill="#016536"/>
    <path id="Path_10" data-name="Path 10" d="M278.254,123.847a22.877,22.877,0,0,0-4.81-13.743,10.806,10.806,0,0,1-.754-1.057,1.326,1.326,0,0,1,.362-1.827,1.306,1.306,0,0,1,1.8.2,20.113,20.113,0,0,1,1.594,2.052,26.235,26.235,0,0,1-2.933,33.258,1.377,1.377,0,1,1-2.048-1.821,30.175,30.175,0,0,0,3.367-4.35A23.788,23.788,0,0,0,278.254,123.847Z" transform="translate(-215.616 -85.091)" fill="#016536"/>
    <path id="Path_11" data-name="Path 11" d="M63.79,129.326a26.087,26.087,0,0,1,4.853-14.738,1.482,1.482,0,0,1,1.457-.793,1.357,1.357,0,0,1,1.13.91,1.661,1.661,0,0,1-.427,1.625,22.06,22.06,0,0,0-3.316,7.026,23.218,23.218,0,0,0,5.349,22.354c.2.229.423.446.6.691a1.341,1.341,0,0,1-.121,1.923,1.354,1.354,0,0,1-1.924-.106,22.7,22.7,0,0,1-2.939-3.518,26.97,26.97,0,0,1-4.665-15.374Z" transform="translate(-50.75 -90.522)" fill="#016536"/>
    <path id="Path_12" data-name="Path 12" d="M158.361,67.045c-1.069-.161-2.122-.35-3.181-.476a23.2,23.2,0,0,0-9.869.981c-.339.108-.673.235-1.018.327a1.373,1.373,0,0,1-1.742-.83,1.309,1.309,0,0,1,.809-1.74,23.506,23.506,0,0,1,4.475-1.259,25.878,25.878,0,0,1,10.38.172,1.85,1.85,0,0,1,1.406.807,1.362,1.362,0,0,1-1.263,2.015Z" transform="translate(-113.334 -50.602)" fill="#016536"/>
    <path id="Path_13" data-name="Path 13" d="M130.325,102.429c0,1.66.012,3.32-.006,4.977a1.381,1.381,0,0,1-1.194,1.531,1.3,1.3,0,0,1-1.478-.928,3.66,3.66,0,0,1-.137-1.134c0-3.013,0-6.024,0-9.037a4.523,4.523,0,0,1,.035-.687,1.387,1.387,0,1,1,2.768.147c.02,1.711.006,3.42.006,5.131Z" transform="translate(-101.445 -76.209)" fill="#016536"/>
    <path id="Path_14" data-name="Path 14" d="M146.84,102.35c0-1.633-.008-3.269,0-4.9.008-1.047.534-1.662,1.384-1.668a1.412,1.412,0,0,1,1.406,1.582q.046,4.976,0,9.957c-.008,1.055-.6,1.656-1.437,1.633s-1.349-.642-1.355-1.7c-.01-1.633,0-3.269,0-4.9Z" transform="translate(-116.82 -76.201)" fill="#016536"/>
    <path id="Path_15" data-name="Path 15" d="M175.228,308.9a15.956,15.956,0,0,1-2.741-.149c-.963-.084-1.574-.72-1.494-1.5a1.473,1.473,0,0,1,1.764-1.284,23.609,23.609,0,0,0,5.026,0,1.488,1.488,0,0,1,1.795,1.245,1.441,1.441,0,0,1-1.457,1.533A16.488,16.488,0,0,1,175.228,308.9Z" transform="translate(-136.034 -243.414)" fill="#016536"/>
  </g>
</svg>
