<svg id="Layer_1" data-name="Layer 1" xmlns="http://www.w3.org/2000/svg" width="78.569" height="78.494" viewBox="0 0 78.569 78.494">
  <g id="Group_4" data-name="Group 4" transform="translate(0 0)">
    <g id="Group_1" data-name="Group 1" transform="translate(9.038)">
      <path id="Path_1" data-name="Path 1" d="M79.422,43.711q-15.266,0-30.53,0A3.773,3.773,0,0,1,45.934,42.6a3.269,3.269,0,0,1-.737-3.395,3.363,3.363,0,0,1,2.616-2.286c.662-.164,1.561.276,1.941-.38A5.367,5.367,0,0,0,50,34.563a28.646,28.646,0,0,1,5.969-14.782,29.212,29.212,0,0,1,17.6-10.989.883.883,0,0,0,.789-1.169A5.205,5.205,0,1,1,84.609,5.844a4.471,4.471,0,0,1-.062,1.923c-.187.625-.039.851.623.982a28.878,28.878,0,0,1,13.24,6.326,29.161,29.161,0,0,1,10.449,19.161A15.171,15.171,0,0,1,109,35.857c.012.706.284.99,1.034.988a3.519,3.519,0,0,1,3.756,2.51,3.456,3.456,0,0,1-3.22,4.343c-.309.021-.621.008-.932.008H79.422Zm0-6.88h21.054c1.891,0,3.781-.023,5.672.01.693.012.988-.181.928-.926-.073-.9-.17-1.8-.318-2.695A27.664,27.664,0,0,0,76.711,10.291,27.009,27.009,0,0,0,60.033,18.11a27.414,27.414,0,0,0-8.2,17.317c-.141,1.385-.11,1.4,1.256,1.4H79.422Zm0,4.939h30.223c.284,0,.571.01.853-.012a1.525,1.525,0,0,0,1.235-.7,1.414,1.414,0,0,0-.93-2.172,12.449,12.449,0,0,0-2.942-.1q-29.408-.012-58.814-.01a3.227,3.227,0,0,0-1.073.137,1.447,1.447,0,0,0-.077,2.72,3.225,3.225,0,0,0,1.3.141H79.427Zm.307-33.493V8.219h1.32c.1,0,.208.006.309.012,1,.069,1.21-.1,1.289-1.109a4.186,4.186,0,0,0-.012-1.007,2.977,2.977,0,0,0-2.221-2.537,3.126,3.126,0,0,0-3.446.994A3.183,3.183,0,0,0,76.4,7.847a.6.6,0,0,0,.7.444C77.973,8.248,78.856,8.277,79.734,8.277Z" transform="translate(-44.699 -1.166)" fill="#016536"/>
      <path id="Path_2" data-name="Path 2" d="M47.716,42.849a4.019,4.019,0,0,1-3.183-1.215,3.582,3.582,0,0,1-.8-3.7,3.683,3.683,0,0,1,2.836-2.491,2.794,2.794,0,0,1,.862-.031c.513.035.754.027.887-.2a2.5,2.5,0,0,0,.174-1.159,6.516,6.516,0,0,1,.029-.7,29.057,29.057,0,0,1,6.031-14.94,29.617,29.617,0,0,1,17.778-11.1,2.684,2.684,0,0,0,.65-.174,3.413,3.413,0,0,0-.1-.625,5.425,5.425,0,0,1,.87-4.111A5.456,5.456,0,0,1,77.27.073a5.691,5.691,0,0,1,4.3.994,5.313,5.313,0,0,1,2.178,3.559,4.783,4.783,0,0,1-.073,2.055c-.085.284-.064.384-.044.417s.106.106.428.17a29.261,29.261,0,0,1,13.379,6.393,29.581,29.581,0,0,1,10.557,19.36,14.9,14.9,0,0,1,.147,1.655c.01.55.154.693.72.683h.023a3.8,3.8,0,0,1,4.032,2.734,3.62,3.62,0,0,1-.525,3.1,3.91,3.91,0,0,1-2.973,1.642c-.241.015-.48.012-.71.01H71.249q-11.766,0-23.533,0h0Zm-.693-6.833a1.277,1.277,0,0,0-.305.031,3.057,3.057,0,0,0-2.394,2.078,2.952,2.952,0,0,0,.669,3.087,3.442,3.442,0,0,0,2.724,1.013h0q11.766-.006,23.533,0h37.462c.23,0,.448,0,.664-.01a3.3,3.3,0,0,0,2.5-1.379,3,3,0,0,0,.436-2.568c-.434-1.5-1.622-2.288-3.455-2.286h-.01a1.159,1.159,0,0,1-1.337-1.293,14.412,14.412,0,0,0-.143-1.586A28.984,28.984,0,0,0,97.033,14.135a28.642,28.642,0,0,0-13.1-6.258,1.184,1.184,0,0,1-.841-.459,1.149,1.149,0,0,1-.021-.918,4.244,4.244,0,0,0,.052-1.79A4.694,4.694,0,0,0,81.2,1.568,5.063,5.063,0,0,0,77.374.684a4.828,4.828,0,0,0-3.116,2.064,4.806,4.806,0,0,0-.776,3.635c.235,1.138.129,1.3-1.026,1.534A29.016,29.016,0,0,0,55.036,18.792a28.439,28.439,0,0,0-5.9,14.625c-.021.2-.023.409-.025.633a2.943,2.943,0,0,1-.257,1.466c-.343.59-.965.546-1.468.511-.127-.008-.247-.017-.363-.017Zm.615,4.889a2.535,2.535,0,0,1-1.026-.168,1.757,1.757,0,0,1,.1-3.3,3.565,3.565,0,0,1,1.175-.154H64.958l41.737.01c.26.008.525-.01.783-.019a8.2,8.2,0,0,1,2.232.125A1.794,1.794,0,0,1,111,38.466a1.71,1.71,0,0,1-.164,1.576,1.847,1.847,0,0,1-1.474.847c-.23.017-.459.017-.681.015H47.635Zm.245-3a2.991,2.991,0,0,0-.972.118,1.135,1.135,0,0,0-.056,2.138,2.4,2.4,0,0,0,.978.118h60.851c.218,0,.426,0,.629-.012a1.21,1.21,0,0,0,1-.561,1.1,1.1,0,0,0,.112-1.007,1.187,1.187,0,0,0-.853-.693A7.564,7.564,0,0,0,107.5,37.9c-.264.01-.531.021-.806.019q-20.869-.009-41.737-.008H47.884Zm57.159-1.929h-.069c-1.35-.025-2.722-.019-4.051-.015-.538,0-1.078,0-1.615,0H51.914c-.754,0-1.167,0-1.424-.284s-.216-.729-.141-1.46a27.811,27.811,0,0,1,8.3-17.508A27.414,27.414,0,0,1,75.509,8.808,28,28,0,0,1,105.9,32c.133.81.235,1.673.32,2.72a1.016,1.016,0,0,1-1.175,1.262Zm-2.514-.642c.816,0,1.64,0,2.456.019a.8.8,0,0,0,.54-.106.7.7,0,0,0,.073-.484c-.083-1.03-.183-1.877-.314-2.67a27.375,27.375,0,0,0-29.71-22.67,26.8,26.8,0,0,0-16.489,7.732,27.215,27.215,0,0,0-8.112,17.128,2.8,2.8,0,0,0-.017.98,2.74,2.74,0,0,0,.963.079H99.309c.538,0,1.075,0,1.613,0s1.067,0,1.607,0ZM75.856,7.429a.887.887,0,0,1-.928-.658A3.483,3.483,0,0,1,75.563,3.2a3.427,3.427,0,0,1,3.768-1.09,3.274,3.274,0,0,1,2.444,2.786,4.505,4.505,0,0,1,.017,1.082c-.093,1.177-.442,1.478-1.621,1.4-.1-.006-.193-.012-.291-.012H78.871v.058h-.311c-.255,0-.511,0-.766,0-.61-.006-1.242-.012-1.856.019l-.085,0Zm2.327-4.871A2.745,2.745,0,0,0,76.037,3.6a2.86,2.86,0,0,0-.517,2.973c.058.176.11.247.39.233.633-.033,1.273-.025,1.893-.019.149,0,.3,0,.448,0V6.733h1.632c.11,0,.22.006.33.015.83.058.893,0,.957-.822a3.869,3.869,0,0,0-.01-.93,2.654,2.654,0,0,0-2-2.29,3.556,3.556,0,0,0-.978-.145Z" transform="translate(-43.525 0.01)" fill="#016536"/>
    </g>
    <g id="Group_2" data-name="Group 2" transform="translate(0 47.454)">
      <path id="Path_3" data-name="Path 3" d="M37.089,238.274c2.417.058,4.817.314,7.225.316.749,0,1.5.058,2.248.112a8.047,8.047,0,0,0,3.575-.525q8.427-3.295,16.873-6.536c2.637-1.017,5,.264,5.452,2.934a3.884,3.884,0,0,1-2.049,3.874q-6.437,3.843-12.881,7.669-3.036,1.806-6.079,3.608a12,12,0,0,1-5.911,1.663c-4.372.112-8.747.216-13.119.34q-4.27.121-8.535.3a11.272,11.272,0,0,0-5.089,1.509c-.451.253-.9.515-1.358.754a3.34,3.34,0,0,0-2.134,2.383,3.582,3.582,0,0,1-3.081,2.626q-2.7.561-5.4,1.08c-1.119.218-1.518-.05-1.7-1.192q-1.47-9.312-2.917-18.627c-.224-1.43-.426-2.865-.654-4.3a1.045,1.045,0,0,1,.936-1.339c1.85-.382,3.689-.822,5.554-1.117a3.7,3.7,0,0,1,3.673,1.557.751.751,0,0,0,1.1.268c2.311-1.046,4.644-2.041,6.955-3.091a15.593,15.593,0,0,1,5.714-1.293c3.409-.187,6.812-.473,10.217-.708,2.658-.183,5.315-.384,7.977-.509a3.086,3.086,0,0,1,3.442,2.755,3.152,3.152,0,0,1-2.55,3.395c-2.489.7-4.981,1.391-7.472,2.084Zm9.793,2.419c-.878-.054-1.754-.129-2.635-.156-4.269-.129-8.537-.241-12.806-.367a8.217,8.217,0,0,1-1.235-.125.922.922,0,0,1-.764-1.206c.16-.484.573-.623,1.011-.745q6.434-1.778,12.866-3.567a8.144,8.144,0,0,0,1.179-.382,1.063,1.063,0,0,0,.581-1.3,1,1,0,0,0-.97-.857,8.08,8.08,0,0,0-1.165.01q-9.019.613-18.034,1.237a11.177,11.177,0,0,0-3.843.86c-2.574,1.154-5.151,2.3-7.744,3.415a.868.868,0,0,0-.571,1.146c.816,4.557,1.609,9.119,2.408,13.678.16.918.2.945,1,.482a19.563,19.563,0,0,1,5.747-2.479,27.047,27.047,0,0,1,4.713-.357c6.312-.22,12.625-.363,18.937-.529a9.588,9.588,0,0,0,4.74-1.291q9.483-5.627,18.962-11.269a3.815,3.815,0,0,0,.687-.5,1.916,1.916,0,0,0,.27-2.292,1.759,1.759,0,0,0-2.08-.783c-.3.091-.581.218-.872.33q-8.222,3.177-16.439,6.357a9.122,9.122,0,0,1-3.945.7Zm-43.238-3.6c.019.17.031.351.058.529q1.021,6.546,2.045,13.094.526,3.37,1.059,6.737c.066.415.042.947.741.8,1.493-.307,3-.577,4.48-.92a2.017,2.017,0,0,0,1.572-2.394q-.813-4.815-1.638-9.627-.67-3.855-1.381-7.7a2.034,2.034,0,0,0-2.186-1.869c-1.48.226-2.94.579-4.41.87-.28.056-.424.174-.338.484Z" transform="translate(-1.211 -229.72)" fill="#016536"/>
      <path id="Path_4" data-name="Path 4" d="M4.989,259.593a1.285,1.285,0,0,1-.77-.214,1.807,1.807,0,0,1-.623-1.312c-.93-5.894-1.866-11.888-2.772-17.687l-.147-.941c-.1-.627-.191-1.254-.284-1.881-.12-.806-.241-1.609-.37-2.413A1.353,1.353,0,0,1,1.2,233.454q.791-.165,1.582-.336c1.3-.28,2.647-.571,3.986-.783a4.025,4.025,0,0,1,3.97,1.678c.235.311.349.338.72.172,1.1-.5,2.23-.995,3.32-1.474,1.194-.525,2.429-1.069,3.635-1.617a15.728,15.728,0,0,1,5.826-1.32c2.224-.12,4.482-.289,6.667-.451q1.772-.131,3.546-.255l1.6-.112c2.091-.147,4.25-.3,6.38-.4a3.381,3.381,0,0,1,3.764,3.023,3.473,3.473,0,0,1-2.774,3.739q-2.619.738-5.242,1.464l-.332.093c.407.023.81.046,1.206.071,1.325.079,2.693.162,4.036.164.718,0,1.445.054,2.147.1l.122.008a7.72,7.72,0,0,0,3.438-.5c5.666-2.215,11.444-4.443,16.873-6.538a4.476,4.476,0,0,1,3.88.143,4.134,4.134,0,0,1-.208,7.223q-5.223,3.117-10.456,6.226l-2.427,1.443q-3.036,1.806-6.079,3.608a12.365,12.365,0,0,1-6.062,1.707l-3.492.087c-3.156.079-6.417.16-9.625.251-3,.085-5.79.183-8.531.3a11.016,11.016,0,0,0-4.95,1.47l-.357.2c-.328.187-.669.38-1.011.556a3.038,3.038,0,0,0-1.974,2.172,3.853,3.853,0,0,1-3.322,2.867c-1.561.324-3.228.658-5.406,1.082a3.566,3.566,0,0,1-.671.075ZM7.461,232.9a3.87,3.87,0,0,0-.592.048c-1.323.208-2.66.5-3.953.776-.529.114-1.057.228-1.586.338-.585.12-.785.407-.691.984.129.806.249,1.611.37,2.419.093.627.187,1.252.284,1.877l.147.941c.905,5.8,1.842,11.791,2.772,17.685.077.492.193.779.365.9a1.332,1.332,0,0,0,.963.035c2.176-.424,3.841-.756,5.4-1.08a3.365,3.365,0,0,0,2.838-2.386,3.63,3.63,0,0,1,2.3-2.6c.332-.172.666-.361.99-.546l.359-.2a11.6,11.6,0,0,1,5.228-1.549c2.743-.114,5.535-.212,8.539-.3,3.21-.091,6.471-.172,9.627-.251l3.492-.087a11.748,11.748,0,0,0,5.761-1.619q3.04-1.8,6.077-3.608l2.427-1.443q5.229-3.111,10.454-6.226a3.509,3.509,0,0,0,.22-6.145,3.873,3.873,0,0,0-3.349-.1c-5.429,2.093-11.205,4.323-16.871,6.536a8.328,8.328,0,0,1-3.71.546l-.122-.008c-.691-.05-1.406-.1-2.1-.1-1.362,0-2.738-.085-4.071-.164-1.036-.062-2.105-.127-3.16-.152l-2.087-.05,4.242-1.181q2.622-.729,5.24-1.464a2.834,2.834,0,0,0,2.325-3.052,2.77,2.77,0,0,0-3.118-2.489c-2.122.1-4.279.249-6.366.4l-1.6.112q-1.772.121-3.542.255c-2.188.162-4.449.33-6.679.451a15.139,15.139,0,0,0-5.6,1.266c-1.21.55-2.446,1.094-3.642,1.621-1.088.48-2.213.974-3.314,1.472a1.05,1.05,0,0,1-1.474-.365,3.409,3.409,0,0,0-2.784-1.484ZM6.114,257.43a.751.751,0,0,1-.455-.135,1.089,1.089,0,0,1-.359-.816c-.006-.048-.012-.093-.019-.139q-.414-2.582-.812-5.163L4.224,249.6Q3.2,243.054,2.179,236.506c-.021-.129-.033-.26-.046-.386l-.012-.137a.673.673,0,0,1,.058-.531.775.775,0,0,1,.527-.311c.488-.1.974-.2,1.462-.3.965-.206,1.966-.417,2.961-.569a2.326,2.326,0,0,1,2.541,2.12c.455,2.46.92,5.053,1.381,7.709.494,2.851.984,5.751,1.457,8.556l.181,1.073a2.322,2.322,0,0,1-1.808,2.751c-.988.228-2,.428-2.973.619-.5.1-1.011.2-1.514.3a1.36,1.36,0,0,1-.278.031Zm-3.4-21.646a.3.3,0,0,0,.012.064l.008.048c.006.054.01.11.017.168.01.114.021.233.039.349q1.021,6.546,2.045,13.094l.245,1.576q.4,2.582.812,5.161c.008.052.015.1.023.158.019.139.046.347.1.388a.379.379,0,0,0,.245,0c.507-.1,1.013-.2,1.52-.3.972-.191,1.974-.39,2.954-.615a1.7,1.7,0,0,0,1.335-2.039l-.181-1.073c-.473-2.8-.961-5.7-1.455-8.552-.461-2.653-.924-5.244-1.381-7.7a1.727,1.727,0,0,0-1.833-1.617c-.978.149-1.968.359-2.927.563-.49.1-.98.208-1.47.305a.825.825,0,0,0-.112.031Zm11.573,16.47a.5.5,0,0,1-.21-.046c-.289-.135-.349-.473-.438-.988l-.473-2.705c-.629-3.6-1.279-7.316-1.935-10.971a1.17,1.17,0,0,1,.754-1.489c2.626-1.127,5.271-2.307,7.74-3.413a11.406,11.406,0,0,1,3.947-.887c6.011-.421,12.125-.837,18.036-1.237a8.5,8.5,0,0,1,1.208-.01,1.308,1.308,0,0,1,1.252,1.107,1.375,1.375,0,0,1-.758,1.651,7.567,7.567,0,0,1-1.08.359l-.145.039q-6.431,1.788-12.866,3.567c-.471.131-.7.239-.8.542a.593.593,0,0,0,.048.494.674.674,0,0,0,.475.307,8.07,8.07,0,0,0,1.19.118q2.909.087,5.82.166,3.494.1,6.986.2c.608.019,1.223.06,1.817.1.276.019.55.037.826.054h0a8.719,8.719,0,0,0,3.812-.675c4.013-1.563,8.1-3.139,12.052-4.665l4.389-1.694c.083-.031.164-.064.247-.1.208-.083.421-.17.646-.239a2.066,2.066,0,0,1,2.44.924,2.231,2.231,0,0,1-.324,2.674,4.108,4.108,0,0,1-.743.546q-9.477,5.64-18.962,11.269a9.846,9.846,0,0,1-4.889,1.335L40,248.705c-4.779.122-9.723.247-14.581.417-.3.01-.594.019-.893.025a20.613,20.613,0,0,0-3.768.326,19.3,19.3,0,0,0-5.655,2.444,1.848,1.848,0,0,1-.812.336Zm28.14-21.14c-.2,0-.421.008-.677.025-5.911.4-12.023.816-18.034,1.237a10.8,10.8,0,0,0-3.737.833c-2.471,1.107-5.118,2.288-7.748,3.417-.4.172-.473.322-.386.806.656,3.656,1.306,7.377,1.935,10.973l.473,2.705a4.862,4.862,0,0,0,.1.5,4.742,4.742,0,0,0,.43-.23,19.833,19.833,0,0,1,5.838-2.514,21.139,21.139,0,0,1,3.882-.338c.295-.008.592-.015.887-.025,4.862-.17,9.806-.3,14.587-.417l4.352-.112a9.231,9.231,0,0,0,4.588-1.248q9.483-5.627,18.962-11.269a3.387,3.387,0,0,0,.631-.461,1.612,1.612,0,0,0,.216-1.91,1.451,1.451,0,0,0-1.719-.642c-.2.06-.39.139-.594.22-.085.035-.17.069-.255.1l-4.389,1.694c-3.951,1.524-8.037,3.1-12.05,4.663a9.434,9.434,0,0,1-4.076.716h0c-.276-.017-.554-.035-.83-.054-.588-.039-1.2-.083-1.794-.1q-3.491-.106-6.984-.2-2.912-.081-5.822-.166a8.466,8.466,0,0,1-1.281-.129,1.293,1.293,0,0,1-.9-.6,1.2,1.2,0,0,1-.1-1.007,1.534,1.534,0,0,1,1.223-.947q6.434-1.778,12.866-3.567l.145-.039a6.562,6.562,0,0,0,.988-.326c.135-.06.546-.245.4-.959a.693.693,0,0,0-.687-.606c-.139-.01-.284-.017-.442-.017Z" transform="translate(0.006 -228.553)" fill="#016536"/>
    </g>
    <g id="Group_3" data-name="Group 3" transform="translate(21.035 14.359)">
      <path id="Path_5" data-name="Path 5" d="M102.81,82.608a4.138,4.138,0,0,1,.174-.542A21.517,21.517,0,0,1,113.5,70.992a4.362,4.362,0,0,1,.718-.289.941.941,0,0,1,.737,1.723,1.722,1.722,0,0,1-.274.143,19.826,19.826,0,0,0-9.837,10.042,4.475,4.475,0,0,1-.363.683.833.833,0,0,1-1.007.38.961.961,0,0,1-.662-1.067Z" transform="translate(-102.498 -70.344)" fill="#016536"/>
      <path id="Path_6" data-name="Path 6" d="M102.576,82.844a1.223,1.223,0,0,1-.394-.069,1.263,1.263,0,0,1-.872-1.366v-.046l.015-.044a.964.964,0,0,0,.025-.093,3.289,3.289,0,0,1,.162-.484,21.675,21.675,0,0,1,10.665-11.228,4.646,4.646,0,0,1,.772-.309,1.215,1.215,0,0,1,1.52.7,1.2,1.2,0,0,1-.525,1.58,2,2,0,0,1-.314.166,19.415,19.415,0,0,0-9.694,9.9l-.042.091a3.931,3.931,0,0,1-.349.639,1.181,1.181,0,0,1-.967.563Zm-.644-1.385c0,.473.185.635.453.727.172.06.4.083.652-.266a3.354,3.354,0,0,0,.293-.544l.044-.093a20.014,20.014,0,0,1,9.991-10.192,1.641,1.641,0,0,0,.228-.118c.455-.311.411-.583.309-.81a.593.593,0,0,0-.791-.355,4.113,4.113,0,0,0-.666.27A21.081,21.081,0,0,0,102.08,81a2.725,2.725,0,0,0-.129.388c-.006.025-.012.05-.019.071Z" transform="translate(-101.309 -69.15)" fill="#016536"/>
    </g>
  </g>
</svg>
