<svg id="Layer_1" data-name="Layer 1" xmlns="http://www.w3.org/2000/svg" width="75.619" height="78.27" viewBox="0 0 75.619 78.27">
  <g id="Group_6" data-name="Group 6" transform="translate(0 0)">
    <path id="Path_16" data-name="Path 16" d="M29.66,78.265H1.9c-1.546,0-1.885-.34-1.885-1.9C.02,65.281.041,54.2,0,43.118a19.972,19.972,0,0,1,.855-6.036C2.47,31.815,3.978,26.514,5.567,21.239c.206-.685.149-1.046-.574-1.286a3.041,3.041,0,0,1-1.418-1.208,6.481,6.481,0,0,1-.044-7.059,3.516,3.516,0,0,1,3.057-1.611c4.561.029,9.12.006,13.681.017a2.98,2.98,0,0,0,1.5-.374c3.719-2.051,7.454-4.072,11.167-6.133a8.372,8.372,0,0,1,4.2-1.08c8.229.032,16.459.015,24.69.015a.971.971,0,0,0,1.105-1.048C62.96.479,63.4.007,64.372,0Q69.285-.014,74.2,0a1.263,1.263,0,0,1,1.41,1.418q.016,8.074,0,16.15c0,.969-.485,1.435-1.473,1.437q-4.875.016-9.751,0a1.286,1.286,0,0,1-1.458-1.452c-.013-.525-.025-1.053,0-1.576s-.13-.752-.7-.761c-1.542-.023-1.521-.04-1.987,1.418A6.67,6.67,0,0,1,54.6,21.48c-.706.116-.714.353-.546.92q2.452,8.263,4.874,16.534a7.883,7.883,0,0,1,.336,2.248q-.013,17.648-.006,35.294c0,1.4-.38,1.784-1.765,1.784H29.66Zm19.3-54.988c-.4-.017-.559.219-.758.372-1.725,1.328-3.414,2.7-5.173,3.986a5.6,5.6,0,0,1-8.465-6.614c.279-.687.1-.754-.532-.752q-12.228.022-24.453-.008a1.084,1.084,0,0,0-1.242.95C6.739,26.729,5.1,32.233,3.487,37.75a14.078,14.078,0,0,0-.853,3.983q.028,16.425.011,32.85a.917.917,0,0,0,1.023,1.048H42.98a.952.952,0,0,0,1.071-1.08q0-16.463-.011-32.928a11.193,11.193,0,0,1,.479-3.252q1.96-6.561,3.885-13.133c.189-.643.366-1.29.555-1.962ZM26.957,9.931c.006.05.011.1.017.153h3.754c4.767,0,9.536.006,14.3-.006.719,0,1.321.151,1.576.889a1.485,1.485,0,0,1-.529,1.616q-4.1,4.081-8.171,8.185a3.029,3.029,0,0,0-.271,4.3,2.963,2.963,0,0,0,4.183.137c1.864-1.448,3.815-2.8,5.557-4.38a7.284,7.284,0,0,1,5.7-1.964c2.906.164,4.519-1.422,4.822-4.33a2.012,2.012,0,0,1,2.082-1.927c.733-.017,1.469-.036,2.2,0,.6.032.763-.216.756-.784-.025-1.969-.034-3.937,0-5.906.013-.664-.263-.782-.842-.782Q49.6,5.16,37.1,5.152a4.708,4.708,0,0,0-2.282.494C32.194,7.064,29.576,8.5,26.954,9.929ZM46.68,73.767c1.135-1.145,2.074-2.132,3.061-3.067a1.9,1.9,0,0,0,.613-1.525q-.025-12.8-.011-25.6c0-1.4.4-1.983,1.336-1.969.906.015,1.288.59,1.288,1.939q0,12.839,0,25.68c0,.334-.107.714.162.983,1.124,1.124,2.265,2.229,3.408,3.351.164-.231.088-.473.088-.7q.006-15.559.006-31.115a7.956,7.956,0,0,0-.349-2.246Q54.8,34.439,53.319,29.38c-.523-1.777-1.055-3.553-1.595-5.374a1.186,1.186,0,0,0-.363.748c-1.309,4.429-2.576,8.868-3.941,13.28a17.811,17.811,0,0,0-.756,5.42c.034,9.742.015,19.482.015,29.224v1.09Zm-4.578-61c-.254-.027-.355-.046-.456-.046q-17.361,0-34.722-.008a1.47,1.47,0,0,0-1.5,1.139,3.9,3.9,0,0,0-.017,2.622,1.5,1.5,0,0,0,1.542,1.187q14.846-.022,29.695-.008a1.1,1.1,0,0,0,.868-.267c1.49-1.508,2.988-3.009,4.586-4.616ZM72.99,9.52c0-2.044-.017-4.091.011-6.135.008-.588-.2-.773-.775-.765-1.962.027-3.925.023-5.887,0-.548-.006-.8.126-.8.742q.032,6.133,0,12.267c0,.588.2.773.775.765,1.962-.027,3.925-.032,5.887,0,.637.011.807-.218.8-.824-.029-2.019-.011-4.036-.011-6.055ZM54.739,75.613c-1.05-1.04-1.975-1.962-2.906-2.876a.24.24,0,0,0-.353,0c-.931.916-1.855,1.838-2.9,2.876Z" transform="translate(0.001 0.005)" fill="#016536"/>
    <path id="Path_17" data-name="Path 17" d="M60.33,190.251a6.39,6.39,0,0,1-1.189,4.878c-1.544,2.13-1.156,4.473-.981,6.815q.3,3.961.584,7.925c.063.889.153,1.78.155,2.67a3.776,3.776,0,0,1-3.824,3.855c-.733.008-1.469.011-2.2,0a3.744,3.744,0,0,1-3.79-3.88c.053-1.964.24-3.927.372-5.889q.287-4.239.582-8.477a1.772,1.772,0,0,0-.21-.987c-.038-.069-.065-.145-.109-.21a13.746,13.746,0,0,1-2.086-9.374c.086-.973.492-1.527,1.307-1.536s1.313.538,1.326,1.5.015,1.943,0,2.914c-.006.429.151.622.6.618,2.223-.023,1.767.221,1.811-1.679.017-.683-.015-1.366.013-2.048a1.3,1.3,0,1,1,2.607.025c.025.945.038,1.891,0,2.836-.025.626.147.9.83.874,1.853-.059,1.561.2,1.586-1.6.011-.708-.015-1.418.011-2.126a1.3,1.3,0,1,1,2.607,0c.025.84.006,1.681.006,2.885ZM56.179,211.7h-.015c-.019-.368-.029-.735-.055-1.1-.248-3.427-.519-6.851-.737-10.28-.1-1.569-.055-1.574-1.578-1.569-1.038,0-1.092.053-1.162,1.095q-.136,2-.271,4c-.187,2.826-.389,5.652-.553,8.479-.055.962.382,1.391,1.353,1.433.548.023,1.1.023,1.651,0,.973-.042,1.368-.466,1.366-1.429v-.63Zm-2.185-17.99H51.721c-.313,0-.5.05-.372.454.5,1.63.924,1.956,2.637,1.954.366,0,.733-.017,1.1,0a.75.75,0,0,0,.809-.477c.216-.475.462-.939.7-1.406.183-.359.1-.538-.324-.534-.758.008-1.515,0-2.273,0Z" transform="translate(-37.558 -146.951)" fill="#016536"/>
    <path id="Path_18" data-name="Path 18" d="M124.026,194.877c0,1.994-.006,3.988,0,5.981.011,2.759.5,5.477.691,8.219a18.262,18.262,0,0,1,.254,4.141,3.737,3.737,0,0,1-3.712,3.2q-1.059.016-2.122,0a3.84,3.84,0,0,1-3.756-4.364c.342-3.151.632-6.307.956-9.461a.6.6,0,0,0-.368-.7c-.048-.021-.09-.053-.139-.074-1.914-.9-2.25-.845-1.815-3.588a22.615,22.615,0,0,1,2.738-8.393,7.146,7.146,0,0,1,4.683-3.666,5.4,5.4,0,0,1,1.088-.107c1.017,0,1.49.46,1.494,1.49.01,2.439,0,4.88,0,7.32Zm-2.626.2c0-1.784,0-3.57,0-5.353,0-.193.109-.464-.137-.565-.208-.084-.391.1-.561.221a6.25,6.25,0,0,0-1.9,2.271,22.514,22.514,0,0,0-2.061,6.574,1.082,1.082,0,0,0,.771,1.429A2.23,2.23,0,0,1,119,200.943c.082.246.321.235.532.237.368,0,.735-.025,1.1.008.58.053.784-.174.775-.763-.029-1.784-.01-3.57-.01-5.353Zm-1.179,18.713c1.941,0,2.25-.376,2.034-2.269-.258-2.263-.494-4.528-.658-6.8-.053-.731-.294-.931-.992-.918-1.618.032-1.658,0-1.849,1.593-.271,2.261-.487,4.528-.7,6.794-.1,1.044.393,1.548,1.456,1.6.235.01.471,0,.706,0Z" transform="translate(-89.927 -146.976)" fill="#016536"/>
  </g>
</svg>
